<svg width="1440" height="500" viewBox="0 0 1440 500" fill="none" xmlns="http://www.w3.org/2000/svg">
<rect width="1440" height="502" fill="#0F6E8C"/>
<g clip-path="url(#clip0)">
<g clip-path="url(#clip1)">
<path d="M736.598 121.244H738.793V116.13H741.776C745.149 116.13 746.818 114.092 746.818 111.407C746.818 108.729 745.163 106.698 741.783 106.698H736.598V121.244ZM738.793 114.269V108.58H741.548C743.722 108.58 744.609 109.759 744.609 111.407C744.609 113.055 743.722 114.269 741.577 114.269H738.793ZM749.221 121.244H751.344V114.582C751.344 113.161 752.445 112.131 753.915 112.131C754.327 112.131 754.647 112.217 754.902 112.345L755.584 110.569C755.222 110.327 754.753 110.171 754.157 110.171C752.864 110.171 751.784 110.896 751.387 112.068H751.273V110.335H749.221V121.244ZM761.355 121.464C764.43 121.464 766.44 119.212 766.44 115.839C766.44 112.444 764.43 110.193 761.355 110.193C758.279 110.193 756.27 112.444 756.27 115.839C756.27 119.212 758.279 121.464 761.355 121.464ZM761.362 119.681C759.352 119.681 758.414 117.927 758.414 115.832C758.414 113.744 759.352 111.968 761.362 111.968C763.358 111.968 764.295 113.744 764.295 115.832C764.295 117.927 763.358 119.681 761.362 119.681ZM772.894 121.457C774.883 121.457 775.664 120.242 776.048 119.546H776.225V121.244H778.299V106.698H776.175V112.103H776.048C775.664 111.428 774.94 110.193 772.908 110.193C770.273 110.193 768.335 112.273 768.335 115.81C768.335 119.34 770.245 121.457 772.894 121.457ZM773.363 119.646C771.467 119.646 770.479 117.977 770.479 115.789C770.479 113.623 771.445 111.996 773.363 111.996C775.217 111.996 776.211 113.509 776.211 115.789C776.211 118.083 775.195 119.646 773.363 119.646ZM788.24 116.72C788.248 118.573 786.87 119.454 785.676 119.454C784.363 119.454 783.453 118.502 783.453 117.018V110.335H781.33V117.273C781.33 119.979 782.814 121.386 784.909 121.386C786.55 121.386 787.665 120.519 788.169 119.354H788.283V121.244H790.371V110.335H788.24V116.72ZM797.82 121.464C800.398 121.464 802.067 119.916 802.301 117.792H800.234C799.964 118.971 799.048 119.667 797.834 119.667C796.037 119.667 794.879 118.168 794.879 115.789C794.879 113.452 796.058 111.982 797.834 111.982C799.183 111.982 800.007 112.835 800.234 113.857H802.301C802.074 111.656 800.277 110.193 797.798 110.193C794.723 110.193 792.734 112.508 792.734 115.839C792.734 119.127 794.652 121.464 797.82 121.464ZM809.664 110.335H807.427V107.721H805.304V110.335H803.706V112.039H805.304V118.481C805.297 120.462 806.809 121.421 808.485 121.386C809.16 121.379 809.615 121.251 809.863 121.158L809.48 119.404C809.338 119.433 809.075 119.496 808.734 119.496C808.045 119.496 807.427 119.269 807.427 118.041V112.039H809.664V110.335Z" fill="#F4F5F7"/>
<path d="M746.227 174.425C746.227 170.744 744.068 168.448 741.091 168.448C738.114 168.448 735.955 170.744 735.955 174.425C735.955 178.107 738.114 180.403 741.091 180.403C744.068 180.403 746.227 178.107 746.227 174.425ZM744.864 174.425C744.864 177.448 743.205 179.085 741.091 179.085C738.977 179.085 737.318 177.448 737.318 174.425C737.318 171.403 738.977 169.766 741.091 169.766C743.205 169.766 744.864 171.403 744.864 174.425ZM755.551 171.516H754.097L751.688 178.471H751.597L749.188 171.516H747.733L750.96 180.244H752.324L755.551 171.516ZM760.668 180.425C762.44 180.425 763.736 179.539 764.145 178.221L762.849 177.857C762.509 178.766 761.719 179.221 760.668 179.221C759.094 179.221 758.009 178.204 757.946 176.335H764.281V175.766C764.281 172.516 762.349 171.403 760.531 171.403C758.168 171.403 756.599 173.266 756.599 175.948C756.599 178.63 758.145 180.425 760.668 180.425ZM757.946 175.175C758.037 173.818 758.997 172.607 760.531 172.607C761.986 172.607 762.918 173.698 762.918 175.175H757.946ZM766.321 180.244H767.662V174.721C767.662 173.545 768.594 172.675 769.866 172.675C770.202 172.675 770.452 172.738 770.639 172.835L771.094 171.698C770.821 171.505 770.463 171.38 769.98 171.38C768.923 171.38 768.02 171.971 767.707 172.835H767.616V171.516H766.321V180.244ZM779.739 171.516H778.284L775.875 178.471H775.784L773.375 171.516H771.92L775.148 180.244H776.511L779.739 171.516ZM781.509 180.244H782.849V171.516H781.509V180.244ZM782.19 170.062C782.713 170.062 783.145 169.653 783.145 169.153C783.145 168.653 782.713 168.244 782.19 168.244C781.668 168.244 781.236 168.653 781.236 169.153C781.236 169.653 781.668 170.062 782.19 170.062ZM788.964 180.425C790.737 180.425 792.033 179.539 792.442 178.221L791.146 177.857C790.805 178.766 790.016 179.221 788.964 179.221C787.391 179.221 786.305 178.204 786.243 176.335H792.578V175.766C792.578 172.516 790.646 171.403 788.828 171.403C786.464 171.403 784.896 173.266 784.896 175.948C784.896 178.63 786.442 180.425 788.964 180.425ZM786.243 175.175C786.334 173.818 787.294 172.607 788.828 172.607C790.283 172.607 791.214 173.698 791.214 175.175H786.243ZM796.595 180.244H797.913L799.822 173.539H799.959L801.868 180.244H803.186L805.845 171.516H804.436L802.55 178.175H802.459L800.618 171.516H799.186L797.322 178.198H797.232L795.345 171.516H793.936L796.595 180.244Z" fill="#EEEFF4"/>
<path d="M736.409 218.244H737.818V213.039H742.864V211.789H737.818V207.857H743.386V206.607H736.409V218.244ZM748.636 218.425C750.409 218.425 751.705 217.539 752.114 216.221L750.818 215.857C750.477 216.766 749.688 217.221 748.636 217.221C747.062 217.221 745.977 216.204 745.915 214.335H752.25V213.766C752.25 210.516 750.318 209.403 748.5 209.403C746.136 209.403 744.568 211.266 744.568 213.948C744.568 216.63 746.114 218.425 748.636 218.425ZM745.915 213.175C746.006 211.818 746.966 210.607 748.5 210.607C749.955 210.607 750.886 211.698 750.886 213.175H745.915ZM757.585 218.425C759.267 218.425 759.835 217.38 760.131 216.903H760.29V218.244H761.585V209.516H760.244V210.903H760.131C759.835 210.448 759.312 209.403 757.608 209.403C755.403 209.403 753.881 211.153 753.881 213.903C753.881 216.675 755.403 218.425 757.585 218.425ZM757.767 217.221C756.085 217.221 755.222 215.744 755.222 213.88C755.222 212.039 756.062 210.607 757.767 210.607C759.403 210.607 760.267 211.925 760.267 213.88C760.267 215.857 759.381 217.221 757.767 217.221ZM768.023 209.516H766.159V207.425H764.818V209.516H763.5V210.653H764.818V216.107C764.818 217.63 766.045 218.357 767.182 218.357C767.682 218.357 768 218.266 768.182 218.198L767.909 216.994C767.795 217.016 767.614 217.062 767.318 217.062C766.727 217.062 766.159 216.88 766.159 215.744V210.653H768.023V209.516ZM775.54 214.675C775.54 216.312 774.29 217.062 773.29 217.062C772.176 217.062 771.381 216.244 771.381 214.971V209.516H770.04V215.062C770.04 217.289 771.222 218.357 772.858 218.357C774.176 218.357 775.04 217.653 775.449 216.766H775.54V218.244H776.881V209.516H775.54V214.675ZM779.337 218.244H780.678V212.721C780.678 211.545 781.609 210.675 782.882 210.675C783.217 210.675 783.467 210.738 783.655 210.835L784.109 209.698C783.837 209.505 783.479 209.38 782.996 209.38C781.939 209.38 781.036 209.971 780.723 210.835H780.632V209.516H779.337V218.244ZM788.871 218.425C790.643 218.425 791.939 217.539 792.348 216.221L791.053 215.857C790.712 216.766 789.922 217.221 788.871 217.221C787.297 217.221 786.212 216.204 786.149 214.335H792.484V213.766C792.484 210.516 790.553 209.403 788.734 209.403C786.371 209.403 784.803 211.266 784.803 213.948C784.803 216.63 786.348 218.425 788.871 218.425ZM786.149 213.175C786.24 211.818 787.2 210.607 788.734 210.607C790.189 210.607 791.121 211.698 791.121 213.175H786.149ZM800.706 211.471C800.286 210.232 799.342 209.403 797.615 209.403C795.774 209.403 794.411 210.448 794.411 211.925C794.411 213.13 795.126 213.937 796.729 214.312L798.183 214.653C799.064 214.857 799.479 215.278 799.479 215.88C799.479 216.63 798.683 217.244 797.433 217.244C796.337 217.244 795.649 216.772 795.411 215.835L794.138 216.153C794.45 217.636 795.672 218.425 797.456 218.425C799.484 218.425 800.865 217.318 800.865 215.812C800.865 214.596 800.104 213.829 798.547 213.448L797.251 213.13C796.217 212.874 795.751 212.528 795.751 211.857C795.751 211.107 796.547 210.562 797.615 210.562C798.786 210.562 799.268 211.21 799.501 211.812L800.706 211.471Z" fill="#EEEFF4"/>
<path d="M735.773 245.857H739.432V256.244H740.841V245.857H744.5V244.607H735.773V245.857ZM750.805 252.675C750.805 254.312 749.555 255.062 748.555 255.062C747.442 255.062 746.646 254.244 746.646 252.971V247.516H745.305V253.062C745.305 255.289 746.487 256.357 748.124 256.357C749.442 256.357 750.305 255.653 750.714 254.766H750.805V256.244H752.146V247.516H750.805V252.675ZM758.398 247.516H756.534V245.425H755.193V247.516H753.875V248.653H755.193V254.107C755.193 255.63 756.42 256.357 757.557 256.357C758.057 256.357 758.375 256.266 758.557 256.198L758.284 254.994C758.17 255.016 757.989 255.062 757.693 255.062C757.102 255.062 756.534 254.88 756.534 253.744V248.653H758.398V247.516ZM763.866 256.425C766.23 256.425 767.821 254.63 767.821 251.925C767.821 249.198 766.23 247.403 763.866 247.403C761.503 247.403 759.912 249.198 759.912 251.925C759.912 254.63 761.503 256.425 763.866 256.425ZM763.866 255.221C762.071 255.221 761.253 253.675 761.253 251.925C761.253 250.175 762.071 248.607 763.866 248.607C765.662 248.607 766.48 250.175 766.48 251.925C766.48 253.675 765.662 255.221 763.866 255.221ZM769.868 256.244H771.209V250.721C771.209 249.545 772.141 248.675 773.413 248.675C773.749 248.675 773.999 248.738 774.186 248.835L774.641 247.698C774.368 247.505 774.01 247.38 773.527 247.38C772.47 247.38 771.567 247.971 771.254 248.835H771.163V247.516H769.868V256.244ZM776.009 256.244H777.349V247.516H776.009V256.244ZM776.69 246.062C777.213 246.062 777.645 245.653 777.645 245.153C777.645 244.653 777.213 244.244 776.69 244.244C776.168 244.244 775.736 244.653 775.736 245.153C775.736 245.653 776.168 246.062 776.69 246.062ZM783.101 256.425C784.783 256.425 785.351 255.38 785.646 254.903H785.805V256.244H787.101V247.516H785.76V248.903H785.646C785.351 248.448 784.828 247.403 783.124 247.403C780.919 247.403 779.396 249.153 779.396 251.903C779.396 254.675 780.919 256.425 783.101 256.425ZM783.283 255.221C781.601 255.221 780.737 253.744 780.737 251.88C780.737 250.039 781.578 248.607 783.283 248.607C784.919 248.607 785.783 249.925 785.783 251.88C785.783 253.857 784.896 255.221 783.283 255.221ZM789.743 244.607V254.335C789.743 255.579 790.379 256.312 791.652 256.312C792.038 256.312 792.419 256.244 792.652 256.175L792.379 255.016C792.249 255.056 792.129 255.096 791.811 255.107C791.22 255.124 791.084 254.818 791.084 253.971V244.607H789.743ZM800.065 249.471C799.645 248.232 798.702 247.403 796.974 247.403C795.134 247.403 793.77 248.448 793.77 249.925C793.77 251.13 794.486 251.937 796.088 252.312L797.543 252.653C798.423 252.857 798.838 253.278 798.838 253.88C798.838 254.63 798.043 255.244 796.793 255.244C795.696 255.244 795.009 254.772 794.77 253.835L793.497 254.153C793.81 255.636 795.031 256.425 796.815 256.425C798.844 256.425 800.224 255.318 800.224 253.812C800.224 252.596 799.463 251.829 797.906 251.448L796.611 251.13C795.577 250.874 795.111 250.528 795.111 249.857C795.111 249.107 795.906 248.562 796.974 248.562C798.145 248.562 798.628 249.21 798.861 249.812L800.065 249.471Z" fill="#EEEFF4"/>
<path d="M736.409 294.244H737.818V289.994H740.364C743.074 289.994 744.295 288.346 744.295 286.289C744.295 284.232 743.074 282.607 740.341 282.607H736.409V294.244ZM737.818 288.744V283.857H740.295C742.188 283.857 742.909 284.891 742.909 286.289C742.909 287.687 742.188 288.744 740.318 288.744H737.818ZM746.384 294.244H747.724V288.721C747.724 287.545 748.656 286.675 749.929 286.675C750.264 286.675 750.514 286.738 750.702 286.835L751.156 285.698C750.884 285.505 750.526 285.38 750.043 285.38C748.986 285.38 748.082 285.971 747.77 286.835H747.679V285.516H746.384V294.244ZM752.524 294.244H753.865V285.516H752.524V294.244ZM753.206 284.062C753.729 284.062 754.161 283.653 754.161 283.153C754.161 282.653 753.729 282.244 753.206 282.244C752.683 282.244 752.251 282.653 752.251 283.153C752.251 283.653 752.683 284.062 753.206 284.062ZM759.866 294.425C761.798 294.425 763.071 293.244 763.298 291.698H761.957C761.707 292.653 760.912 293.221 759.866 293.221C758.276 293.221 757.253 291.903 757.253 289.88C757.253 287.903 758.298 286.607 759.866 286.607C761.048 286.607 761.753 287.335 761.957 288.13H763.298C763.071 286.494 761.685 285.403 759.844 285.403C757.48 285.403 755.912 287.266 755.912 289.925C755.912 292.539 757.412 294.425 759.866 294.425ZM765.259 294.244H766.599V285.516H765.259V294.244ZM765.94 284.062C766.463 284.062 766.895 283.653 766.895 283.153C766.895 282.653 766.463 282.244 765.94 282.244C765.418 282.244 764.986 282.653 764.986 283.153C764.986 283.653 765.418 284.062 765.94 284.062ZM770.396 288.994C770.396 287.471 771.339 286.607 772.624 286.607C773.868 286.607 774.624 287.42 774.624 288.789V294.244H775.964V288.698C775.964 286.471 774.777 285.403 773.01 285.403C771.692 285.403 770.874 285.994 770.464 286.88H770.351V285.516H769.055V294.244H770.396V288.994ZM781.938 297.698C784.028 297.698 785.71 296.744 785.71 294.494V285.516H784.415V286.903H784.278C783.983 286.448 783.438 285.403 781.733 285.403C779.528 285.403 778.006 287.153 778.006 289.835C778.006 292.562 779.597 294.107 781.71 294.107C783.415 294.107 783.96 293.107 784.256 292.63H784.369V294.403C784.369 295.857 783.347 296.516 781.938 296.516C780.352 296.516 779.795 295.681 779.438 295.198L778.369 295.948C778.915 296.863 779.989 297.698 781.938 297.698ZM781.892 292.903C780.21 292.903 779.347 291.63 779.347 289.812C779.347 288.039 780.188 286.607 781.892 286.607C783.528 286.607 784.392 287.925 784.392 289.812C784.392 291.744 783.506 292.903 781.892 292.903Z" fill="#EEEFF4"/>
<path d="M736.409 332.244H737.818V327.698H740.364C740.466 327.698 740.562 327.698 740.659 327.693L743.114 332.244H744.75L742.119 327.437C743.602 326.931 744.295 325.721 744.295 324.175C744.295 322.119 743.068 320.607 740.341 320.607H736.409V332.244ZM737.818 326.425V321.857H740.295C742.182 321.857 742.909 322.778 742.909 324.175C742.909 325.573 742.182 326.425 740.318 326.425H737.818ZM750.027 332.425C751.8 332.425 753.095 331.539 753.504 330.221L752.209 329.857C751.868 330.766 751.078 331.221 750.027 331.221C748.453 331.221 747.368 330.204 747.305 328.335H753.641V327.766C753.641 324.516 751.709 323.403 749.891 323.403C747.527 323.403 745.959 325.266 745.959 327.948C745.959 330.63 747.504 332.425 750.027 332.425ZM747.305 327.175C747.396 325.818 748.357 324.607 749.891 324.607C751.345 324.607 752.277 325.698 752.277 327.175H747.305ZM755.68 320.607V330.335C755.68 331.579 756.317 332.312 757.589 332.312C757.976 332.312 758.357 332.244 758.589 332.175L758.317 331.016C758.186 331.056 758.067 331.096 757.749 331.107C757.158 331.124 757.021 330.818 757.021 329.971V320.607H755.68ZM763.48 332.425C765.253 332.425 766.548 331.539 766.957 330.221L765.662 329.857C765.321 330.766 764.531 331.221 763.48 331.221C761.906 331.221 760.821 330.204 760.759 328.335H767.094V327.766C767.094 324.516 765.162 323.403 763.344 323.403C760.98 323.403 759.412 325.266 759.412 327.948C759.412 330.63 760.957 332.425 763.48 332.425ZM760.759 327.175C760.849 325.818 761.81 324.607 763.344 324.607C764.798 324.607 765.73 325.698 765.73 327.175H760.759ZM772.429 332.425C774.111 332.425 774.679 331.38 774.974 330.903H775.134V332.244H776.429V323.516H775.088V324.903H774.974C774.679 324.448 774.156 323.403 772.452 323.403C770.247 323.403 768.724 325.153 768.724 327.903C768.724 330.675 770.247 332.425 772.429 332.425ZM772.611 331.221C770.929 331.221 770.065 329.744 770.065 327.88C770.065 326.039 770.906 324.607 772.611 324.607C774.247 324.607 775.111 325.925 775.111 327.88C775.111 329.857 774.224 331.221 772.611 331.221ZM785.253 325.471C784.832 324.232 783.889 323.403 782.162 323.403C780.321 323.403 778.957 324.448 778.957 325.925C778.957 327.13 779.673 327.937 781.276 328.312L782.73 328.653C783.611 328.857 784.026 329.278 784.026 329.88C784.026 330.63 783.23 331.244 781.98 331.244C780.884 331.244 780.196 330.772 779.957 329.835L778.685 330.153C778.997 331.636 780.219 332.425 782.003 332.425C784.031 332.425 785.412 331.318 785.412 329.812C785.412 328.596 784.651 327.829 783.094 327.448L781.798 327.13C780.764 326.874 780.298 326.528 780.298 325.857C780.298 325.107 781.094 324.562 782.162 324.562C783.332 324.562 783.815 325.21 784.048 325.812L785.253 325.471ZM791.089 332.425C792.862 332.425 794.158 331.539 794.567 330.221L793.271 329.857C792.93 330.766 792.141 331.221 791.089 331.221C789.516 331.221 788.43 330.204 788.368 328.335H794.703V327.766C794.703 324.516 792.771 323.403 790.953 323.403C788.589 323.403 787.021 325.266 787.021 327.948C787.021 330.63 788.567 332.425 791.089 332.425ZM788.368 327.175C788.459 325.818 789.419 324.607 790.953 324.607C792.408 324.607 793.339 325.698 793.339 327.175H788.368ZM802.925 325.471C802.504 324.232 801.561 323.403 799.834 323.403C797.993 323.403 796.629 324.448 796.629 325.925C796.629 327.13 797.345 327.937 798.947 328.312L800.402 328.653C801.283 328.857 801.697 329.278 801.697 329.88C801.697 330.63 800.902 331.244 799.652 331.244C798.555 331.244 797.868 330.772 797.629 329.835L796.357 330.153C796.669 331.636 797.891 332.425 799.675 332.425C801.703 332.425 803.084 331.318 803.084 329.812C803.084 328.596 802.322 327.829 800.766 327.448L799.47 327.13C798.436 326.874 797.97 326.528 797.97 325.857C797.97 325.107 798.766 324.562 799.834 324.562C801.004 324.562 801.487 325.21 801.72 325.812L802.925 325.471Z" fill="#EEEFF4"/>
</g>
<g clip-path="url(#clip2)">
<path d="M938.679 111.428C938.182 108.318 935.746 106.499 932.67 106.499C928.906 106.499 926.129 109.319 926.129 113.971C926.129 118.623 928.892 121.443 932.67 121.443C935.866 121.443 938.203 119.44 938.679 116.563L936.463 116.556C936.087 118.417 934.524 119.44 932.685 119.44C930.192 119.44 928.31 117.529 928.31 113.971C928.31 110.441 930.185 108.502 932.692 108.502C934.545 108.502 936.101 109.546 936.463 111.428H938.679ZM945.73 121.464C948.805 121.464 950.815 119.212 950.815 115.839C950.815 112.444 948.805 110.193 945.73 110.193C942.654 110.193 940.645 112.444 940.645 115.839C940.645 119.212 942.654 121.464 945.73 121.464ZM945.737 119.681C943.727 119.681 942.789 117.927 942.789 115.832C942.789 113.744 943.727 111.968 945.737 111.968C947.733 111.968 948.67 113.744 948.67 115.832C948.67 117.927 947.733 119.681 945.737 119.681ZM953.185 121.244H955.309V114.518C955.309 113.048 956.339 112.025 957.546 112.025C958.725 112.025 959.542 112.806 959.542 113.992V121.244H961.658V114.291C961.658 112.977 962.461 112.025 963.846 112.025C964.968 112.025 965.891 112.65 965.891 114.127V121.244H968.015V113.928C968.015 111.435 966.623 110.193 964.648 110.193C963.079 110.193 961.9 110.945 961.374 112.11H961.261C960.785 110.917 959.783 110.193 958.327 110.193C956.886 110.193 955.813 110.91 955.359 112.11H955.224V110.335H953.185V121.244ZM970.861 125.335H972.985V119.546H973.113C973.496 120.242 974.277 121.457 976.266 121.457C978.908 121.457 980.826 119.34 980.826 115.81C980.826 112.273 978.88 110.193 976.245 110.193C974.221 110.193 973.489 111.428 973.113 112.103H972.935V110.335H970.861V125.335ZM972.942 115.789C972.942 113.509 973.936 111.996 975.79 111.996C977.715 111.996 978.681 113.623 978.681 115.789C978.681 117.977 977.686 119.646 975.79 119.646C973.965 119.646 972.942 118.083 972.942 115.789ZM987.289 121.457C989.277 121.457 990.059 120.242 990.442 119.546H990.62V121.244H992.694V110.335H990.57V112.103H990.442C990.059 111.428 989.334 110.193 987.303 110.193C984.668 110.193 982.729 112.273 982.729 115.81C982.729 119.34 984.64 121.457 987.289 121.457ZM987.757 119.646C985.861 119.646 984.874 117.977 984.874 115.789C984.874 113.623 985.84 111.996 987.757 111.996C989.611 111.996 990.605 113.509 990.605 115.789C990.605 118.083 989.59 119.646 987.757 119.646ZM997.848 114.766C997.848 113.026 998.913 112.032 1000.39 112.032C1001.83 112.032 1002.71 112.977 1002.71 114.56V121.244H1004.83V114.305C1004.83 111.606 1003.35 110.193 1001.12 110.193C999.474 110.193 998.402 110.952 997.898 112.11H997.763V110.335H995.724V121.244H997.848V114.766ZM1008.63 125.335C1010.38 125.335 1011.49 124.418 1012.12 122.7L1016.63 110.356L1014.34 110.335L1011.58 118.8H1011.46L1008.7 110.335H1006.43L1010.42 121.386L1010.16 122.11C1009.62 123.559 1008.86 123.68 1007.69 123.36L1007.18 125.1C1007.44 125.214 1007.99 125.335 1008.63 125.335Z" fill="#F4F5F7"/>
<path d="M926.886 180.244L928.057 176.948H932.761L933.932 180.244H935.409L931.136 168.607H929.682L925.409 180.244H926.886ZM928.5 175.698L930.364 170.448H930.455L932.318 175.698H928.5ZM937.222 180.244H938.517V178.903H938.676C938.972 179.38 939.54 180.425 941.222 180.425C943.403 180.425 944.926 178.675 944.926 175.903C944.926 173.153 943.403 171.403 941.199 171.403C939.494 171.403 938.972 172.448 938.676 172.903H938.562V168.607H937.222V180.244ZM938.54 175.88C938.54 173.925 939.403 172.607 941.04 172.607C942.744 172.607 943.585 174.039 943.585 175.88C943.585 177.744 942.722 179.221 941.04 179.221C939.426 179.221 938.54 177.857 938.54 175.88ZM950.523 180.425C952.886 180.425 954.477 178.63 954.477 175.925C954.477 173.198 952.886 171.403 950.523 171.403C948.159 171.403 946.568 173.198 946.568 175.925C946.568 178.63 948.159 180.425 950.523 180.425ZM950.523 179.221C948.727 179.221 947.909 177.675 947.909 175.925C947.909 174.175 948.727 172.607 950.523 172.607C952.318 172.607 953.136 174.175 953.136 175.925C953.136 177.675 952.318 179.221 950.523 179.221ZM962.024 176.675C962.024 178.312 960.774 179.062 959.774 179.062C958.661 179.062 957.865 178.244 957.865 176.971V171.516H956.524V177.062C956.524 179.289 957.706 180.357 959.342 180.357C960.661 180.357 961.524 179.653 961.933 178.766H962.024V180.244H963.365V171.516H962.024V176.675ZM969.616 171.516H967.753V169.425H966.412V171.516H965.094V172.653H966.412V178.107C966.412 179.63 967.639 180.357 968.776 180.357C969.276 180.357 969.594 180.266 969.776 180.198L969.503 178.994C969.389 179.016 969.207 179.062 968.912 179.062C968.321 179.062 967.753 178.88 967.753 177.744V172.653H969.616V171.516Z" fill="#EEEFF4"/>
<path d="M926.409 218.244H927.818V213.994H930.364C933.074 213.994 934.295 212.346 934.295 210.289C934.295 208.232 933.074 206.607 930.341 206.607H926.409V218.244ZM927.818 212.744V207.857H930.295C932.188 207.857 932.909 208.891 932.909 210.289C932.909 211.687 932.188 212.744 930.318 212.744H927.818ZM936.384 218.244H937.724V212.721C937.724 211.545 938.656 210.675 939.929 210.675C940.264 210.675 940.514 210.738 940.702 210.835L941.156 209.698C940.884 209.505 940.526 209.38 940.043 209.38C938.986 209.38 938.082 209.971 937.77 210.835H937.679V209.516H936.384V218.244ZM945.918 218.425C947.69 218.425 948.986 217.539 949.395 216.221L948.099 215.857C947.759 216.766 946.969 217.221 945.918 217.221C944.344 217.221 943.259 216.204 943.196 214.335H949.531V213.766C949.531 210.516 947.599 209.403 945.781 209.403C943.418 209.403 941.849 211.266 941.849 213.948C941.849 216.63 943.395 218.425 945.918 218.425ZM943.196 213.175C943.287 211.818 944.247 210.607 945.781 210.607C947.236 210.607 948.168 211.698 948.168 213.175H943.196ZM957.753 211.471C957.332 210.232 956.389 209.403 954.662 209.403C952.821 209.403 951.457 210.448 951.457 211.925C951.457 213.13 952.173 213.937 953.776 214.312L955.23 214.653C956.111 214.857 956.526 215.278 956.526 215.88C956.526 216.63 955.73 217.244 954.48 217.244C953.384 217.244 952.696 216.772 952.457 215.835L951.185 216.153C951.497 217.636 952.719 218.425 954.503 218.425C956.531 218.425 957.912 217.318 957.912 215.812C957.912 214.596 957.151 213.829 955.594 213.448L954.298 213.13C953.264 212.874 952.798 212.528 952.798 211.857C952.798 211.107 953.594 210.562 954.662 210.562C955.832 210.562 956.315 211.21 956.548 211.812L957.753 211.471ZM966.112 211.471C965.692 210.232 964.749 209.403 963.021 209.403C961.18 209.403 959.817 210.448 959.817 211.925C959.817 213.13 960.533 213.937 962.135 214.312L963.589 214.653C964.47 214.857 964.885 215.278 964.885 215.88C964.885 216.63 964.089 217.244 962.839 217.244C961.743 217.244 961.055 216.772 960.817 215.835L959.544 216.153C959.857 217.636 961.078 218.425 962.862 218.425C964.891 218.425 966.271 217.318 966.271 215.812C966.271 214.596 965.51 213.829 963.953 213.448L962.658 213.13C961.624 212.874 961.158 212.528 961.158 211.857C961.158 211.107 961.953 210.562 963.021 210.562C964.192 210.562 964.675 211.21 964.908 211.812L966.112 211.471Z" fill="#EEEFF4"/>
<path d="M935.773 248.244C935.341 245.857 933.432 244.448 931.091 244.448C928.114 244.448 925.955 246.744 925.955 250.425C925.955 254.107 928.114 256.403 931.091 256.403C933.432 256.403 935.341 254.994 935.773 252.607H934.364C934.023 254.221 932.636 255.085 931.091 255.085C928.977 255.085 927.318 253.448 927.318 250.425C927.318 247.403 928.977 245.766 931.091 245.766C932.636 245.766 934.023 246.63 934.364 248.244H935.773ZM941.163 256.425C942.845 256.425 943.413 255.38 943.709 254.903H943.868V256.244H945.163V247.516H943.822V248.903H943.709C943.413 248.448 942.891 247.403 941.186 247.403C938.982 247.403 937.459 249.153 937.459 251.903C937.459 254.675 938.982 256.425 941.163 256.425ZM941.345 255.221C939.663 255.221 938.8 253.744 938.8 251.88C938.8 250.039 939.641 248.607 941.345 248.607C942.982 248.607 943.845 249.925 943.845 251.88C943.845 253.857 942.959 255.221 941.345 255.221ZM947.805 256.244H949.146V250.721C949.146 249.545 950.078 248.675 951.351 248.675C951.686 248.675 951.936 248.738 952.124 248.835L952.578 247.698C952.305 247.505 951.947 247.38 951.464 247.38C950.408 247.38 949.504 247.971 949.192 248.835H949.101V247.516H947.805V256.244ZM957.339 256.425C959.112 256.425 960.408 255.539 960.817 254.221L959.521 253.857C959.18 254.766 958.391 255.221 957.339 255.221C955.766 255.221 954.68 254.204 954.618 252.335H960.953V251.766C960.953 248.516 959.021 247.403 957.203 247.403C954.839 247.403 953.271 249.266 953.271 251.948C953.271 254.63 954.817 256.425 957.339 256.425ZM954.618 251.175C954.709 249.818 955.669 248.607 957.203 248.607C958.658 248.607 959.589 249.698 959.589 251.175H954.618ZM966.652 256.425C968.425 256.425 969.72 255.539 970.129 254.221L968.834 253.857C968.493 254.766 967.703 255.221 966.652 255.221C965.078 255.221 963.993 254.204 963.93 252.335H970.266V251.766C970.266 248.516 968.334 247.403 966.516 247.403C964.152 247.403 962.584 249.266 962.584 251.948C962.584 254.63 964.129 256.425 966.652 256.425ZM963.93 251.175C964.021 249.818 964.982 248.607 966.516 248.607C967.97 248.607 968.902 249.698 968.902 251.175H963.93ZM972.305 256.244H973.646V250.721C973.646 249.545 974.578 248.675 975.851 248.675C976.186 248.675 976.436 248.738 976.624 248.835L977.078 247.698C976.805 247.505 976.447 247.38 975.964 247.38C974.908 247.38 974.004 247.971 973.692 248.835H973.601V247.516H972.305V256.244ZM984.628 249.471C984.207 248.232 983.264 247.403 981.537 247.403C979.696 247.403 978.332 248.448 978.332 249.925C978.332 251.13 979.048 251.937 980.651 252.312L982.105 252.653C982.986 252.857 983.401 253.278 983.401 253.88C983.401 254.63 982.605 255.244 981.355 255.244C980.259 255.244 979.571 254.772 979.332 253.835L978.06 254.153C978.372 255.636 979.594 256.425 981.378 256.425C983.406 256.425 984.787 255.318 984.787 253.812C984.787 252.596 984.026 251.829 982.469 251.448L981.173 251.13C980.139 250.874 979.673 250.528 979.673 249.857C979.673 249.107 980.469 248.562 981.537 248.562C982.707 248.562 983.19 249.21 983.423 249.812L984.628 249.471Z" fill="#EEEFF4"/>
<path d="M935.773 286.244C935.341 283.857 933.432 282.448 931.091 282.448C928.114 282.448 925.955 284.744 925.955 288.425C925.955 292.107 928.114 294.403 931.091 294.403C933.432 294.403 935.341 292.994 935.773 290.607H934.364C934.023 292.221 932.636 293.085 931.091 293.085C928.977 293.085 927.318 291.448 927.318 288.425C927.318 285.403 928.977 283.766 931.091 283.766C932.636 283.766 934.023 284.63 934.364 286.244H935.773ZM941.413 294.425C943.777 294.425 945.368 292.63 945.368 289.925C945.368 287.198 943.777 285.403 941.413 285.403C939.05 285.403 937.459 287.198 937.459 289.925C937.459 292.63 939.05 294.425 941.413 294.425ZM941.413 293.221C939.618 293.221 938.8 291.675 938.8 289.925C938.8 288.175 939.618 286.607 941.413 286.607C943.209 286.607 944.027 288.175 944.027 289.925C944.027 291.675 943.209 293.221 941.413 293.221ZM948.756 288.994C948.756 287.471 949.699 286.607 950.983 286.607C952.227 286.607 952.983 287.42 952.983 288.789V294.244H954.324V288.698C954.324 286.471 953.136 285.403 951.369 285.403C950.051 285.403 949.233 285.994 948.824 286.88H948.71V285.516H947.415V294.244H948.756V288.994ZM960.57 285.516H958.706V283.425H957.365V285.516H956.047V286.653H957.365V292.107C957.365 293.63 958.592 294.357 959.729 294.357C960.229 294.357 960.547 294.266 960.729 294.198L960.456 292.994C960.342 293.016 960.161 293.062 959.865 293.062C959.274 293.062 958.706 292.88 958.706 291.744V286.653H960.57V285.516ZM965.788 294.425C967.47 294.425 968.038 293.38 968.334 292.903H968.493V294.244H969.788V285.516H968.447V286.903H968.334C968.038 286.448 967.516 285.403 965.811 285.403C963.607 285.403 962.084 287.153 962.084 289.903C962.084 292.675 963.607 294.425 965.788 294.425ZM965.97 293.221C964.288 293.221 963.425 291.744 963.425 289.88C963.425 288.039 964.266 286.607 965.97 286.607C967.607 286.607 968.47 287.925 968.47 289.88C968.47 291.857 967.584 293.221 965.97 293.221ZM975.976 294.425C977.908 294.425 979.18 293.244 979.408 291.698H978.067C977.817 292.653 977.021 293.221 975.976 293.221C974.385 293.221 973.362 291.903 973.362 289.88C973.362 287.903 974.408 286.607 975.976 286.607C977.158 286.607 977.862 287.335 978.067 288.13H979.408C979.18 286.494 977.794 285.403 975.953 285.403C973.589 285.403 972.021 287.266 972.021 289.925C972.021 292.539 973.521 294.425 975.976 294.425ZM985.163 285.516H983.3V283.425H981.959V285.516H980.641V286.653H981.959V292.107C981.959 293.63 983.186 294.357 984.322 294.357C984.822 294.357 985.141 294.266 985.322 294.198L985.05 292.994C984.936 293.016 984.754 293.062 984.459 293.062C983.868 293.062 983.3 292.88 983.3 291.744V286.653H985.163V285.516Z" fill="#EEEFF4"/>
<path d="M926.409 332.244H927.818V327.994H930.364C933.074 327.994 934.295 326.346 934.295 324.289C934.295 322.232 933.074 320.607 930.341 320.607H926.409V332.244ZM927.818 326.744V321.857H930.295C932.188 321.857 932.909 322.891 932.909 324.289C932.909 325.687 932.188 326.744 930.318 326.744H927.818ZM939.585 332.425C941.267 332.425 941.835 331.38 942.131 330.903H942.29V332.244H943.585V323.516H942.244V324.903H942.131C941.835 324.448 941.312 323.403 939.608 323.403C937.403 323.403 935.881 325.153 935.881 327.903C935.881 330.675 937.403 332.425 939.585 332.425ZM939.767 331.221C938.085 331.221 937.222 329.744 937.222 327.88C937.222 326.039 938.062 324.607 939.767 324.607C941.403 324.607 942.267 325.925 942.267 327.88C942.267 329.857 941.381 331.221 939.767 331.221ZM946.227 332.244H947.568V326.721C947.568 325.545 948.5 324.675 949.773 324.675C950.108 324.675 950.358 324.738 950.545 324.835L951 323.698C950.727 323.505 950.369 323.38 949.886 323.38C948.83 323.38 947.926 323.971 947.614 324.835H947.523V323.516H946.227V332.244ZM956.71 323.516H954.847V321.425H953.506V323.516H952.188V324.653H953.506V330.107C953.506 331.63 954.733 332.357 955.869 332.357C956.369 332.357 956.688 332.266 956.869 332.198L956.597 330.994C956.483 331.016 956.301 331.062 956.006 331.062C955.415 331.062 954.847 330.88 954.847 329.744V324.653H956.71V323.516ZM960.068 326.994C960.068 325.471 961.011 324.607 962.295 324.607C963.54 324.607 964.295 325.42 964.295 326.789V332.244H965.636V326.698C965.636 324.471 964.449 323.403 962.682 323.403C961.364 323.403 960.545 323.994 960.136 324.88H960.023V323.516H958.727V332.244H960.068V326.994ZM971.746 332.425C973.518 332.425 974.814 331.539 975.223 330.221L973.928 329.857C973.587 330.766 972.797 331.221 971.746 331.221C970.172 331.221 969.087 330.204 969.024 328.335H975.359V327.766C975.359 324.516 973.428 323.403 971.609 323.403C969.246 323.403 967.678 325.266 967.678 327.948C967.678 330.63 969.223 332.425 971.746 332.425ZM969.024 327.175C969.115 325.818 970.075 324.607 971.609 324.607C973.064 324.607 973.996 325.698 973.996 327.175H969.024ZM977.399 332.244H978.74V326.721C978.74 325.545 979.672 324.675 980.945 324.675C981.28 324.675 981.53 324.738 981.717 324.835L982.172 323.698C981.899 323.505 981.541 323.38 981.058 323.38C980.001 323.38 979.098 323.971 978.786 324.835H978.695V323.516H977.399V332.244ZM989.722 325.471C989.301 324.232 988.358 323.403 986.631 323.403C984.79 323.403 983.426 324.448 983.426 325.925C983.426 327.13 984.142 327.937 985.744 328.312L987.199 328.653C988.08 328.857 988.494 329.278 988.494 329.88C988.494 330.63 987.699 331.244 986.449 331.244C985.352 331.244 984.665 330.772 984.426 329.835L983.153 330.153C983.466 331.636 984.688 332.425 986.472 332.425C988.5 332.425 989.881 331.318 989.881 329.812C989.881 328.596 989.119 327.829 987.562 327.448L986.267 327.13C985.233 326.874 984.767 326.528 984.767 325.857C984.767 325.107 985.562 324.562 986.631 324.562C987.801 324.562 988.284 325.21 988.517 325.812L989.722 325.471Z" fill="#EEEFF4"/>
</g>
<g clip-path="url(#clip3)">
<path d="M1124.53 110.519H1126.65C1126.58 108.19 1124.52 106.499 1121.57 106.499C1118.65 106.499 1116.41 108.168 1116.41 110.675C1116.41 112.7 1117.86 113.886 1120.2 114.518L1121.92 114.987C1123.47 115.398 1124.67 115.91 1124.67 117.202C1124.67 118.623 1123.32 119.56 1121.45 119.56C1119.76 119.56 1118.35 118.808 1118.22 117.224H1116.02C1116.16 119.859 1118.2 121.485 1121.46 121.485C1124.88 121.485 1126.85 119.688 1126.85 117.224C1126.85 114.603 1124.51 113.587 1122.66 113.133L1121.24 112.764C1120.11 112.472 1118.59 111.94 1118.6 110.548C1118.6 109.312 1119.73 108.396 1121.52 108.396C1123.19 108.396 1124.38 109.177 1124.53 110.519ZM1136.21 116.72C1136.22 118.573 1134.84 119.454 1133.65 119.454C1132.33 119.454 1131.42 118.502 1131.42 117.018V110.335H1129.3V117.273C1129.3 119.979 1130.78 121.386 1132.88 121.386C1134.52 121.386 1135.63 120.519 1136.14 119.354H1136.25V121.244H1138.34V110.335H1136.21V116.72ZM1141.19 125.335H1143.32V119.546H1143.44C1143.83 120.242 1144.61 121.457 1146.6 121.457C1149.24 121.457 1151.16 119.34 1151.16 115.81C1151.16 112.273 1149.21 110.193 1146.58 110.193C1144.55 110.193 1143.82 111.428 1143.44 112.103H1143.27V110.335H1141.19V125.335ZM1143.27 115.789C1143.27 113.509 1144.27 111.996 1146.12 111.996C1148.05 111.996 1149.01 113.623 1149.01 115.789C1149.01 117.977 1148.02 119.646 1146.12 119.646C1144.3 119.646 1143.27 118.083 1143.27 115.789ZM1153.54 125.335H1155.66V119.546H1155.79C1156.17 120.242 1156.95 121.457 1158.94 121.457C1161.58 121.457 1163.5 119.34 1163.5 115.81C1163.5 112.273 1161.56 110.193 1158.92 110.193C1156.9 110.193 1156.16 111.428 1155.79 112.103H1155.61V110.335H1153.54V125.335ZM1155.62 115.789C1155.62 113.509 1156.61 111.996 1158.47 111.996C1160.39 111.996 1161.36 113.623 1161.36 115.789C1161.36 117.977 1160.36 119.646 1158.47 119.646C1156.64 119.646 1155.62 118.083 1155.62 115.789ZM1170.48 121.464C1173.55 121.464 1175.56 119.212 1175.56 115.839C1175.56 112.444 1173.55 110.193 1170.48 110.193C1167.4 110.193 1165.39 112.444 1165.39 115.839C1165.39 119.212 1167.4 121.464 1170.48 121.464ZM1170.48 119.681C1168.47 119.681 1167.54 117.927 1167.54 115.832C1167.54 113.744 1168.47 111.968 1170.48 111.968C1172.48 111.968 1173.42 113.744 1173.42 115.832C1173.42 117.927 1172.48 119.681 1170.48 119.681ZM1177.93 121.244H1180.06V114.582C1180.06 113.161 1181.16 112.131 1182.63 112.131C1183.04 112.131 1183.36 112.217 1183.61 112.345L1184.3 110.569C1183.93 110.327 1183.46 110.171 1182.87 110.171C1181.57 110.171 1180.5 110.896 1180.1 112.068H1179.98V110.335H1177.93V121.244ZM1191.6 110.335H1189.36V107.721H1187.24V110.335H1185.64V112.039H1187.24V118.481C1187.23 120.462 1188.74 121.421 1190.42 121.386C1191.09 121.379 1191.55 121.251 1191.8 121.158L1191.41 119.404C1191.27 119.433 1191.01 119.496 1190.67 119.496C1189.98 119.496 1189.36 119.269 1189.36 118.041V112.039H1191.6V110.335Z" fill="#F4F5F7"/>
<path d="M1116.41 180.244H1117.82V175.039H1124.02V180.244H1125.43V168.607H1124.02V173.789H1117.82V168.607H1116.41V180.244ZM1131.73 180.425C1133.5 180.425 1134.8 179.539 1135.21 178.221L1133.91 177.857C1133.57 178.766 1132.78 179.221 1131.73 179.221C1130.16 179.221 1129.07 178.204 1129.01 176.335H1135.34V175.766C1135.34 172.516 1133.41 171.403 1131.59 171.403C1129.23 171.403 1127.66 173.266 1127.66 175.948C1127.66 178.63 1129.21 180.425 1131.73 180.425ZM1129.01 175.175C1129.1 173.818 1130.06 172.607 1131.59 172.607C1133.05 172.607 1133.98 173.698 1133.98 175.175H1129.01ZM1137.38 168.607V178.335C1137.38 179.579 1138.02 180.312 1139.29 180.312C1139.68 180.312 1140.06 180.244 1140.29 180.175L1140.02 179.016C1139.89 179.056 1139.77 179.096 1139.45 179.107C1138.86 179.124 1138.72 178.818 1138.72 177.971V168.607H1137.38ZM1141.52 183.516H1142.87V178.903H1142.98C1143.27 179.38 1143.84 180.425 1145.52 180.425C1147.71 180.425 1149.23 178.675 1149.23 175.903C1149.23 173.153 1147.71 171.403 1145.5 171.403C1143.8 171.403 1143.27 172.448 1142.98 172.903H1142.82V171.516H1141.52V183.516ZM1142.84 175.88C1142.84 173.925 1143.71 172.607 1145.34 172.607C1147.05 172.607 1147.89 174.039 1147.89 175.88C1147.89 177.744 1147.02 179.221 1145.34 179.221C1143.73 179.221 1142.84 177.857 1142.84 175.88ZM1165.32 172.244C1164.89 169.857 1162.98 168.448 1160.64 168.448C1157.66 168.448 1155.5 170.744 1155.5 174.425C1155.5 178.107 1157.66 180.403 1160.64 180.403C1162.98 180.403 1164.89 178.994 1165.32 176.607H1163.91C1163.57 178.221 1162.18 179.085 1160.64 179.085C1158.52 179.085 1156.87 177.448 1156.87 174.425C1156.87 171.403 1158.52 169.766 1160.64 169.766C1162.18 169.766 1163.57 170.63 1163.91 172.244H1165.32ZM1171.07 180.425C1172.85 180.425 1174.14 179.539 1174.55 178.221L1173.26 177.857C1172.91 178.766 1172.12 179.221 1171.07 179.221C1169.5 179.221 1168.41 178.204 1168.35 176.335H1174.69V175.766C1174.69 172.516 1172.76 171.403 1170.94 171.403C1168.57 171.403 1167.01 173.266 1167.01 175.948C1167.01 178.63 1168.55 180.425 1171.07 180.425ZM1168.35 175.175C1168.44 173.818 1169.4 172.607 1170.94 172.607C1172.39 172.607 1173.32 173.698 1173.32 175.175H1168.35ZM1178.07 174.994C1178.07 173.471 1179.01 172.607 1180.3 172.607C1181.54 172.607 1182.3 173.42 1182.3 174.789V180.244H1183.64V174.698C1183.64 172.471 1182.45 171.403 1180.68 171.403C1179.36 171.403 1178.55 171.994 1178.14 172.88H1178.02V171.516H1176.73V180.244H1178.07V174.994ZM1189.88 171.516H1188.02V169.425H1186.68V171.516H1185.36V172.653H1186.68V178.107C1186.68 179.63 1187.9 180.357 1189.04 180.357C1189.54 180.357 1189.86 180.266 1190.04 180.198L1189.77 178.994C1189.65 179.016 1189.47 179.062 1189.18 179.062C1188.59 179.062 1188.02 178.88 1188.02 177.744V172.653H1189.88V171.516ZM1195.46 180.425C1197.24 180.425 1198.53 179.539 1198.94 178.221L1197.65 177.857C1197.31 178.766 1196.52 179.221 1195.46 179.221C1193.89 179.221 1192.81 178.204 1192.74 176.335H1199.08V175.766C1199.08 172.516 1197.15 171.403 1195.33 171.403C1192.96 171.403 1191.4 173.266 1191.4 175.948C1191.4 178.63 1192.94 180.425 1195.46 180.425ZM1192.74 175.175C1192.83 173.818 1193.79 172.607 1195.33 172.607C1196.78 172.607 1197.71 173.698 1197.71 175.175H1192.74ZM1201.12 180.244H1202.46V174.721C1202.46 173.545 1203.39 172.675 1204.66 172.675C1205 172.675 1205.25 172.738 1205.44 172.835L1205.89 171.698C1205.62 171.505 1205.26 171.38 1204.78 171.38C1203.72 171.38 1202.82 171.971 1202.5 172.835H1202.41V171.516H1201.12V180.244Z" fill="#EEEFF4"/>
<path d="M1115.77 207.857H1119.43V218.244H1120.84V207.857H1124.5V206.607H1115.77V207.857ZM1128.89 218.425C1130.66 218.425 1131.95 217.539 1132.36 216.221L1131.07 215.857C1130.73 216.766 1129.94 217.221 1128.89 217.221C1127.31 217.221 1126.23 216.204 1126.16 214.335H1132.5V213.766C1132.5 210.516 1130.57 209.403 1128.75 209.403C1126.39 209.403 1124.82 211.266 1124.82 213.948C1124.82 216.63 1126.36 218.425 1128.89 218.425ZM1126.16 213.175C1126.26 211.818 1127.22 210.607 1128.75 210.607C1130.2 210.607 1131.14 211.698 1131.14 213.175H1126.16ZM1134.54 218.244H1135.88V212.721C1135.88 211.545 1136.81 210.675 1138.09 210.675C1138.42 210.675 1138.67 210.738 1138.86 210.835L1139.31 209.698C1139.04 209.505 1138.68 209.38 1138.2 209.38C1137.14 209.38 1136.24 209.971 1135.93 210.835H1135.84V209.516H1134.54V218.244ZM1140.68 218.244H1142.02V212.789C1142.02 211.511 1142.95 210.607 1144 210.607C1145.02 210.607 1145.73 211.272 1145.73 212.266V218.244H1147.09V212.562C1147.09 211.437 1147.79 210.607 1149.02 210.607C1149.98 210.607 1150.79 211.113 1150.79 212.403V218.244H1152.13V212.403C1152.13 210.352 1151.03 209.403 1149.48 209.403C1148.23 209.403 1147.31 209.977 1146.86 210.88H1146.77C1146.34 209.948 1145.58 209.403 1144.43 209.403C1143.29 209.403 1142.45 209.948 1142.09 210.88H1141.98V209.516H1140.68V218.244ZM1160.77 211.471C1160.35 210.232 1159.4 209.403 1157.68 209.403C1155.84 209.403 1154.47 210.448 1154.47 211.925C1154.47 213.13 1155.19 213.937 1156.79 214.312L1158.25 214.653C1159.13 214.857 1159.54 215.278 1159.54 215.88C1159.54 216.63 1158.75 217.244 1157.5 217.244C1156.4 217.244 1155.71 216.772 1155.47 215.835L1154.2 216.153C1154.51 217.636 1155.73 218.425 1157.52 218.425C1159.55 218.425 1160.93 217.318 1160.93 215.812C1160.93 214.596 1160.17 213.829 1158.61 213.448L1157.31 213.13C1156.28 212.874 1155.81 212.528 1155.81 211.857C1155.81 211.107 1156.61 210.562 1157.68 210.562C1158.85 210.562 1159.33 211.21 1159.56 211.812L1160.77 211.471ZM1170.99 218.425C1173.36 218.425 1174.95 216.63 1174.95 213.925C1174.95 211.198 1173.36 209.403 1170.99 209.403C1168.63 209.403 1167.04 211.198 1167.04 213.925C1167.04 216.63 1168.63 218.425 1170.99 218.425ZM1170.99 217.221C1169.2 217.221 1168.38 215.675 1168.38 213.925C1168.38 212.175 1169.2 210.607 1170.99 210.607C1172.79 210.607 1173.61 212.175 1173.61 213.925C1173.61 215.675 1172.79 217.221 1170.99 217.221ZM1180.88 209.516H1178.92V208.63C1178.92 207.766 1179.29 207.312 1180.17 207.312C1180.56 207.312 1180.79 207.403 1180.92 207.448L1181.31 206.289C1181.11 206.198 1180.7 206.062 1180.04 206.062C1178.79 206.062 1177.58 206.812 1177.58 208.312V209.516H1176.17V210.653H1177.58V218.244H1178.92V210.653H1180.88V209.516ZM1193.44 211.471C1193.02 210.232 1192.08 209.403 1190.35 209.403C1188.51 209.403 1187.14 210.448 1187.14 211.925C1187.14 213.13 1187.86 213.937 1189.46 214.312L1190.92 214.653C1191.8 214.857 1192.21 215.278 1192.21 215.88C1192.21 216.63 1191.42 217.244 1190.17 217.244C1189.07 217.244 1188.38 216.772 1188.14 215.835L1186.87 216.153C1187.18 217.636 1188.41 218.425 1190.19 218.425C1192.22 218.425 1193.6 217.318 1193.6 215.812C1193.6 214.596 1192.84 213.829 1191.28 213.448L1189.99 213.13C1188.95 212.874 1188.49 212.528 1188.49 211.857C1188.49 211.107 1189.28 210.562 1190.35 210.562C1191.52 210.562 1192 211.21 1192.24 211.812L1193.44 211.471ZM1199.28 218.425C1201.05 218.425 1202.35 217.539 1202.75 216.221L1201.46 215.857C1201.12 216.766 1200.33 217.221 1199.28 217.221C1197.7 217.221 1196.62 216.204 1196.56 214.335H1202.89V213.766C1202.89 210.516 1200.96 209.403 1199.14 209.403C1196.78 209.403 1195.21 211.266 1195.21 213.948C1195.21 216.63 1196.75 218.425 1199.28 218.425ZM1196.56 213.175C1196.65 211.818 1197.61 210.607 1199.14 210.607C1200.6 210.607 1201.53 211.698 1201.53 213.175H1196.56ZM1204.93 218.244H1206.27V212.721C1206.27 211.545 1207.2 210.675 1208.48 210.675C1208.81 210.675 1209.06 210.738 1209.25 210.835L1209.7 209.698C1209.43 209.505 1209.07 209.38 1208.59 209.38C1207.53 209.38 1206.63 209.971 1206.32 210.835H1206.23V209.516H1204.93V218.244ZM1218.35 209.516H1216.89L1214.48 216.471H1214.39L1211.98 209.516H1210.53L1213.76 218.244H1215.12L1218.35 209.516ZM1220.12 218.244H1221.46V209.516H1220.12V218.244ZM1220.8 208.062C1221.32 208.062 1221.75 207.653 1221.75 207.153C1221.75 206.653 1221.32 206.244 1220.8 206.244C1220.28 206.244 1219.85 206.653 1219.85 207.153C1219.85 207.653 1220.28 208.062 1220.8 208.062ZM1227.46 218.425C1229.39 218.425 1230.66 217.244 1230.89 215.698H1229.55C1229.3 216.653 1228.51 217.221 1227.46 217.221C1225.87 217.221 1224.85 215.903 1224.85 213.88C1224.85 211.903 1225.89 210.607 1227.46 210.607C1228.64 210.607 1229.35 211.335 1229.55 212.13H1230.89C1230.66 210.494 1229.28 209.403 1227.44 209.403C1225.07 209.403 1223.51 211.266 1223.51 213.925C1223.51 216.539 1225.01 218.425 1227.46 218.425ZM1236.51 218.425C1238.28 218.425 1239.58 217.539 1239.99 216.221L1238.69 215.857C1238.35 216.766 1237.56 217.221 1236.51 217.221C1234.94 217.221 1233.85 216.204 1233.79 214.335H1240.12V213.766C1240.12 210.516 1238.19 209.403 1236.38 209.403C1234.01 209.403 1232.44 211.266 1232.44 213.948C1232.44 216.63 1233.99 218.425 1236.51 218.425ZM1233.79 213.175C1233.88 211.818 1234.84 210.607 1236.38 210.607C1237.83 210.607 1238.76 211.698 1238.76 213.175H1233.79Z" fill="#EEEFF4"/>
<path d="M1116.41 256.244H1123.23V254.994H1117.82V244.607H1116.41V256.244ZM1128.89 256.425C1130.66 256.425 1131.95 255.539 1132.36 254.221L1131.07 253.857C1130.73 254.766 1129.94 255.221 1128.89 255.221C1127.31 255.221 1126.23 254.204 1126.16 252.335H1132.5V251.766C1132.5 248.516 1130.57 247.403 1128.75 247.403C1126.39 247.403 1124.82 249.266 1124.82 251.948C1124.82 254.63 1126.36 256.425 1128.89 256.425ZM1126.16 251.175C1126.26 249.818 1127.22 248.607 1128.75 248.607C1130.2 248.607 1131.14 249.698 1131.14 251.175H1126.16ZM1138.06 259.698C1140.15 259.698 1141.84 258.744 1141.84 256.494V247.516H1140.54V248.903H1140.4C1140.11 248.448 1139.56 247.403 1137.86 247.403C1135.65 247.403 1134.13 249.153 1134.13 251.835C1134.13 254.562 1135.72 256.107 1137.84 256.107C1139.54 256.107 1140.09 255.107 1140.38 254.63H1140.49V256.403C1140.49 257.857 1139.47 258.516 1138.06 258.516C1136.48 258.516 1135.92 257.681 1135.56 257.198L1134.49 257.948C1135.04 258.863 1136.11 259.698 1138.06 259.698ZM1138.02 254.903C1136.34 254.903 1135.47 253.63 1135.47 251.812C1135.47 250.039 1136.31 248.607 1138.02 248.607C1139.65 248.607 1140.52 249.925 1140.52 251.812C1140.52 253.744 1139.63 254.903 1138.02 254.903ZM1147.59 256.425C1149.27 256.425 1149.84 255.38 1150.13 254.903H1150.29V256.244H1151.59V247.516H1150.24V248.903H1150.13C1149.84 248.448 1149.31 247.403 1147.61 247.403C1145.4 247.403 1143.88 249.153 1143.88 251.903C1143.88 254.675 1145.4 256.425 1147.59 256.425ZM1147.77 255.221C1146.09 255.221 1145.22 253.744 1145.22 251.88C1145.22 250.039 1146.06 248.607 1147.77 248.607C1149.4 248.607 1150.27 249.925 1150.27 251.88C1150.27 253.857 1149.38 255.221 1147.77 255.221ZM1154.23 244.607V254.335C1154.23 255.579 1154.86 256.312 1156.14 256.312C1156.52 256.312 1156.9 256.244 1157.14 256.175L1156.86 255.016C1156.73 255.056 1156.61 255.096 1156.3 255.107C1155.7 255.124 1155.57 254.818 1155.57 253.971V244.607H1154.23Z" fill="#EEEFF4"/>
<path d="M1116.41 294.244H1117.82V289.994H1120.36C1123.07 289.994 1124.3 288.346 1124.3 286.289C1124.3 284.232 1123.07 282.607 1120.34 282.607H1116.41V294.244ZM1117.82 288.744V283.857H1120.3C1122.19 283.857 1122.91 284.891 1122.91 286.289C1122.91 287.687 1122.19 288.744 1120.32 288.744H1117.82ZM1126.38 294.244H1127.72V288.721C1127.72 287.545 1128.66 286.675 1129.93 286.675C1130.26 286.675 1130.51 286.738 1130.7 286.835L1131.16 285.698C1130.88 285.505 1130.53 285.38 1130.04 285.38C1128.99 285.38 1128.08 285.971 1127.77 286.835H1127.68V285.516H1126.38V294.244ZM1132.52 294.244H1133.87V285.516H1132.52V294.244ZM1133.21 284.062C1133.73 284.062 1134.16 283.653 1134.16 283.153C1134.16 282.653 1133.73 282.244 1133.21 282.244C1132.68 282.244 1132.25 282.653 1132.25 283.153C1132.25 283.653 1132.68 284.062 1133.21 284.062ZM1143.46 285.516H1142L1139.59 292.471H1139.5L1137.09 285.516H1135.64L1138.87 294.244H1140.23L1143.46 285.516ZM1148.21 294.425C1149.89 294.425 1150.46 293.38 1150.76 292.903H1150.91V294.244H1152.21V285.516H1150.87V286.903H1150.76C1150.46 286.448 1149.94 285.403 1148.23 285.403C1146.03 285.403 1144.51 287.153 1144.51 289.903C1144.51 292.675 1146.03 294.425 1148.21 294.425ZM1148.39 293.221C1146.71 293.221 1145.85 291.744 1145.85 289.88C1145.85 288.039 1146.69 286.607 1148.39 286.607C1150.03 286.607 1150.89 287.925 1150.89 289.88C1150.89 291.857 1150.01 293.221 1148.39 293.221ZM1158.4 294.425C1160.33 294.425 1161.6 293.244 1161.83 291.698H1160.49C1160.24 292.653 1159.44 293.221 1158.4 293.221C1156.81 293.221 1155.78 291.903 1155.78 289.88C1155.78 287.903 1156.83 286.607 1158.4 286.607C1159.58 286.607 1160.28 287.335 1160.49 288.13H1161.83C1161.6 286.494 1160.22 285.403 1158.38 285.403C1156.01 285.403 1154.44 287.266 1154.44 289.925C1154.44 292.539 1155.94 294.425 1158.4 294.425ZM1164.65 297.516C1165.86 297.516 1166.72 296.874 1167.22 295.516L1170.94 285.539L1169.47 285.516L1167.06 292.471H1166.97L1164.56 285.516H1163.11L1166.34 294.289L1166.09 294.971C1165.6 296.3 1164.99 296.425 1164.02 296.175L1163.68 297.357C1163.81 297.425 1164.2 297.516 1164.65 297.516ZM1177.39 294.244H1178.8V289.994H1181.35C1184.06 289.994 1185.28 288.346 1185.28 286.289C1185.28 284.232 1184.06 282.607 1181.33 282.607H1177.39V294.244ZM1178.8 288.744V283.857H1181.28C1183.17 283.857 1183.89 284.891 1183.89 286.289C1183.89 287.687 1183.17 288.744 1181.3 288.744H1178.8ZM1190.82 294.425C1193.18 294.425 1194.77 292.63 1194.77 289.925C1194.77 287.198 1193.18 285.403 1190.82 285.403C1188.46 285.403 1186.87 287.198 1186.87 289.925C1186.87 292.63 1188.46 294.425 1190.82 294.425ZM1190.82 293.221C1189.02 293.221 1188.21 291.675 1188.21 289.925C1188.21 288.175 1189.02 286.607 1190.82 286.607C1192.62 286.607 1193.43 288.175 1193.43 289.925C1193.43 291.675 1192.62 293.221 1190.82 293.221ZM1196.82 282.607V292.335C1196.82 293.579 1197.46 294.312 1198.73 294.312C1199.12 294.312 1199.5 294.244 1199.73 294.175L1199.46 293.016C1199.33 293.056 1199.21 293.096 1198.89 293.107C1198.3 293.124 1198.16 292.818 1198.16 291.971V282.607H1196.82ZM1200.96 294.244H1202.3V285.516H1200.96V294.244ZM1201.64 284.062C1202.17 284.062 1202.6 283.653 1202.6 283.153C1202.6 282.653 1202.17 282.244 1201.64 282.244C1201.12 282.244 1200.69 282.653 1200.69 283.153C1200.69 283.653 1201.12 284.062 1201.64 284.062ZM1208.3 294.425C1210.24 294.425 1211.51 293.244 1211.74 291.698H1210.39C1210.14 292.653 1209.35 293.221 1208.3 293.221C1206.71 293.221 1205.69 291.903 1205.69 289.88C1205.69 287.903 1206.74 286.607 1208.3 286.607C1209.49 286.607 1210.19 287.335 1210.39 288.13H1211.74C1211.51 286.494 1210.12 285.403 1208.28 285.403C1205.92 285.403 1204.35 287.266 1204.35 289.925C1204.35 292.539 1205.85 294.425 1208.3 294.425ZM1214.56 297.516C1215.77 297.516 1216.62 296.874 1217.13 295.516L1220.84 285.539L1219.38 285.516L1216.97 292.471H1216.88L1214.47 285.516H1213.01L1216.24 294.289L1215.99 294.971C1215.5 296.3 1214.9 296.425 1213.92 296.175L1213.58 297.357C1213.72 297.425 1214.11 297.516 1214.56 297.516Z" fill="#EEEFF4"/>
<path d="M1122.77 323.516H1124.14C1124.07 321.761 1122.45 320.448 1120.2 320.448C1117.98 320.448 1116.23 321.744 1116.23 323.698C1116.23 325.266 1117.36 326.198 1119.18 326.721L1120.61 327.13C1121.84 327.471 1122.93 327.903 1122.93 329.062C1122.93 330.335 1121.7 331.175 1120.09 331.175C1118.7 331.175 1117.48 330.562 1117.36 329.244H1115.91C1116.05 331.153 1117.59 332.448 1120.09 332.448C1122.77 332.448 1124.3 330.971 1124.3 329.085C1124.3 326.903 1122.23 326.198 1121.02 325.88L1119.84 325.562C1118.98 325.335 1117.59 324.88 1117.59 323.63C1117.59 322.516 1118.61 321.698 1120.16 321.698C1121.57 321.698 1122.64 322.369 1122.77 323.516ZM1130.23 323.516H1128.36V321.425H1127.02V323.516H1125.7V324.653H1127.02V330.107C1127.02 331.63 1128.25 332.357 1129.38 332.357C1129.88 332.357 1130.2 332.266 1130.38 332.198L1130.11 330.994C1130 331.016 1129.82 331.062 1129.52 331.062C1128.93 331.062 1128.36 330.88 1128.36 329.744V324.653H1130.23V323.516ZM1135.44 332.425C1137.13 332.425 1137.69 331.38 1137.99 330.903H1138.15V332.244H1139.44V323.516H1138.1V324.903H1137.99C1137.69 324.448 1137.17 323.403 1135.47 323.403C1133.26 323.403 1131.74 325.153 1131.74 327.903C1131.74 330.675 1133.26 332.425 1135.44 332.425ZM1135.63 331.221C1133.94 331.221 1133.08 329.744 1133.08 327.88C1133.08 326.039 1133.92 324.607 1135.63 324.607C1137.26 324.607 1138.13 325.925 1138.13 327.88C1138.13 329.857 1137.24 331.221 1135.63 331.221ZM1145.88 323.516H1144.02V321.425H1142.68V323.516H1141.36V324.653H1142.68V330.107C1142.68 331.63 1143.9 332.357 1145.04 332.357C1145.54 332.357 1145.86 332.266 1146.04 332.198L1145.77 330.994C1145.65 331.016 1145.47 331.062 1145.18 331.062C1144.59 331.062 1144.02 330.88 1144.02 329.744V324.653H1145.88V323.516ZM1153.4 328.675C1153.4 330.312 1152.15 331.062 1151.15 331.062C1150.04 331.062 1149.24 330.244 1149.24 328.971V323.516H1147.9V329.062C1147.9 331.289 1149.08 332.357 1150.72 332.357C1152.04 332.357 1152.9 331.653 1153.31 330.766H1153.4V332.244H1154.74V323.516H1153.4V328.675ZM1163.38 325.471C1162.96 324.232 1162.01 323.403 1160.29 323.403C1158.45 323.403 1157.08 324.448 1157.08 325.925C1157.08 327.13 1157.8 327.937 1159.4 328.312L1160.86 328.653C1161.74 328.857 1162.15 329.278 1162.15 329.88C1162.15 330.63 1161.36 331.244 1160.11 331.244C1159.01 331.244 1158.32 330.772 1158.08 329.835L1156.81 330.153C1157.12 331.636 1158.34 332.425 1160.13 332.425C1162.16 332.425 1163.54 331.318 1163.54 329.812C1163.54 328.596 1162.78 327.829 1161.22 327.448L1159.92 327.13C1158.89 326.874 1158.42 326.528 1158.42 325.857C1158.42 325.107 1159.22 324.562 1160.29 324.562C1161.46 324.562 1161.94 325.21 1162.17 325.812L1163.38 325.471Z" fill="#EEEFF4"/>
</g>
</g>
<rect y="430.699" width="1440" height="69.3743" fill="#05546D"/>
<g clip-path="url(#clip4)">
<path opacity="0.1" fill-rule="evenodd" clip-rule="evenodd" d="M1131 465.386C1131 458.758 1136.37 453.386 1143 453.386C1149.63 453.386 1155 458.758 1155 465.386C1155 472.013 1149.63 477.386 1143 477.386C1136.37 477.386 1131 472.013 1131 465.386Z" fill="#F9F8F9"/>
<path fill-rule="evenodd" clip-rule="evenodd" d="M1143 458.986C1141.26 458.986 1141.04 458.993 1140.36 459.025C1139.68 459.056 1139.22 459.164 1138.81 459.322C1138.39 459.485 1138.03 459.704 1137.67 460.06C1137.32 460.416 1137.1 460.773 1136.94 461.193C1136.78 461.601 1136.67 462.066 1136.64 462.747C1136.61 463.429 1136.6 463.648 1136.6 465.386C1136.6 467.124 1136.61 467.342 1136.64 468.024C1136.67 468.706 1136.78 469.171 1136.94 469.578C1137.1 469.998 1137.32 470.356 1137.67 470.711C1138.03 471.067 1138.39 471.287 1138.81 471.45C1139.21 471.608 1139.68 471.716 1140.36 471.747C1141.04 471.778 1141.26 471.786 1143 471.786C1144.74 471.786 1144.96 471.778 1145.64 471.747C1146.32 471.716 1146.79 471.608 1147.19 471.45C1147.61 471.287 1147.97 471.067 1148.33 470.711C1148.68 470.356 1148.9 469.998 1149.06 469.578C1149.22 469.171 1149.33 468.705 1149.36 468.024C1149.39 467.342 1149.4 467.124 1149.4 465.386C1149.4 463.648 1149.39 463.43 1149.36 462.747C1149.33 462.066 1149.22 461.601 1149.06 461.194C1148.9 460.773 1148.68 460.416 1148.33 460.06C1147.97 459.704 1147.61 459.485 1147.19 459.322C1146.78 459.164 1146.32 459.056 1145.64 459.025C1144.95 458.993 1144.74 458.986 1143 458.986H1143ZM1142.43 460.139C1142.6 460.139 1142.79 460.139 1143 460.139C1144.71 460.139 1144.91 460.145 1145.59 460.176C1146.21 460.205 1146.55 460.309 1146.77 460.396C1147.07 460.512 1147.29 460.651 1147.51 460.875C1147.73 461.099 1147.87 461.312 1147.99 461.611C1148.08 461.836 1148.18 462.175 1148.21 462.799C1148.24 463.474 1148.25 463.676 1148.25 465.384C1148.25 467.092 1148.24 467.295 1148.21 467.97C1148.18 468.594 1148.08 468.932 1147.99 469.158C1147.87 469.456 1147.73 469.669 1147.51 469.893C1147.29 470.117 1147.07 470.256 1146.77 470.372C1146.55 470.46 1146.21 470.564 1145.59 470.592C1144.91 470.623 1144.71 470.63 1143 470.63C1141.29 470.63 1141.09 470.623 1140.41 470.592C1139.79 470.563 1139.45 470.459 1139.23 470.372C1138.93 470.256 1138.71 470.117 1138.49 469.893C1138.27 469.669 1138.13 469.456 1138.01 469.157C1137.92 468.932 1137.82 468.593 1137.79 467.969C1137.76 467.295 1137.75 467.092 1137.75 465.383C1137.75 463.674 1137.76 463.472 1137.79 462.797C1137.82 462.173 1137.92 461.835 1138.01 461.609C1138.13 461.311 1138.27 461.097 1138.49 460.873C1138.71 460.649 1138.93 460.511 1139.23 460.394C1139.45 460.306 1139.79 460.202 1140.41 460.174C1141 460.147 1141.23 460.139 1142.43 460.138V460.139ZM1146.42 461.202C1145.99 461.202 1145.65 461.545 1145.65 461.97C1145.65 462.394 1145.99 462.738 1146.42 462.738C1146.84 462.738 1147.18 462.394 1147.18 461.97C1147.18 461.546 1146.84 461.202 1146.42 461.202ZM1143 462.099C1141.19 462.099 1139.71 463.571 1139.71 465.386C1139.71 467.201 1141.19 468.672 1143 468.672C1144.82 468.672 1146.29 467.201 1146.29 465.386C1146.29 463.571 1144.82 462.099 1143 462.099ZM1143 463.253C1144.18 463.253 1145.13 464.208 1145.13 465.386C1145.13 466.564 1144.18 467.519 1143 467.519C1141.82 467.519 1140.87 466.564 1140.87 465.386C1140.87 464.208 1141.82 463.253 1143 463.253Z" fill="white"/>
<path opacity="0.1" fill-rule="evenodd" clip-rule="evenodd" d="M1171 465.386C1171 458.758 1176.37 453.386 1183 453.386C1189.63 453.386 1195 458.758 1195 465.386C1195 472.013 1189.63 477.386 1183 477.386C1176.37 477.386 1171 472.013 1171 465.386Z" fill="#F9F8F9"/>
<path fill-rule="evenodd" clip-rule="evenodd" d="M1189.4 465.377C1189.4 465.81 1189.36 466.242 1189.27 466.663C1189.18 467.075 1189.06 467.478 1188.9 467.864C1188.74 468.244 1188.54 468.609 1188.31 468.95C1188.08 469.288 1187.81 469.606 1187.53 469.896C1187.24 470.184 1186.92 470.446 1186.58 470.676C1186.24 470.906 1185.87 471.104 1185.49 471.265C1185.1 471.428 1184.7 471.553 1184.29 471.637C1183.87 471.724 1183.43 471.768 1183 471.768C1182.57 471.768 1182.13 471.724 1181.71 471.637C1181.3 471.553 1180.89 471.428 1180.51 471.265C1180.13 471.104 1179.76 470.906 1179.42 470.676C1179.08 470.446 1178.76 470.184 1178.47 469.896C1178.19 469.606 1177.92 469.288 1177.69 468.95C1177.46 468.609 1177.26 468.244 1177.1 467.864C1176.94 467.478 1176.81 467.075 1176.73 466.663C1176.64 466.242 1176.6 465.81 1176.6 465.377C1176.6 464.944 1176.64 464.511 1176.73 464.09C1176.81 463.679 1176.94 463.275 1177.1 462.889C1177.26 462.51 1177.46 462.144 1177.69 461.803C1177.92 461.464 1178.19 461.147 1178.47 460.857C1178.76 460.569 1179.08 460.307 1179.42 460.078C1179.76 459.847 1180.13 459.649 1180.51 459.488C1180.89 459.324 1181.3 459.199 1181.71 459.116C1182.13 459.03 1182.57 458.986 1183 458.986C1183.43 458.986 1183.87 459.03 1184.29 459.116C1184.7 459.199 1185.1 459.324 1185.49 459.488C1185.87 459.649 1186.24 459.847 1186.58 460.078C1186.92 460.307 1187.24 460.569 1187.53 460.857C1187.81 461.147 1188.08 461.464 1188.31 461.803C1188.54 462.144 1188.74 462.51 1188.9 462.889C1189.06 463.275 1189.18 463.679 1189.27 464.09C1189.36 464.511 1189.4 464.944 1189.4 465.377ZM1180.67 460.44C1179.14 461.159 1178.01 462.561 1177.65 464.252C1177.8 464.253 1180.07 464.282 1182.7 463.585C1181.75 461.907 1180.74 460.537 1180.67 460.44ZM1183.15 464.426C1180.34 465.267 1177.64 465.207 1177.54 465.203C1177.54 465.261 1177.53 465.318 1177.53 465.377C1177.53 466.779 1178.06 468.057 1178.93 469.024C1178.93 469.021 1180.43 466.371 1183.38 465.419C1183.45 465.395 1183.52 465.374 1183.59 465.353C1183.46 465.043 1183.31 464.732 1183.15 464.426ZM1186.61 461.281C1185.65 460.434 1184.38 459.92 1183 459.92C1182.56 459.92 1182.12 459.973 1181.71 460.072C1181.79 460.182 1182.82 461.542 1183.76 463.256C1185.82 462.484 1186.6 461.301 1186.61 461.281ZM1183.97 466.258C1183.95 466.262 1183.94 466.265 1183.93 466.269C1180.7 467.392 1179.65 469.654 1179.64 469.679C1180.57 470.4 1181.73 470.834 1183 470.834C1183.76 470.834 1184.48 470.68 1185.13 470.402C1185.05 469.925 1184.74 468.254 1183.97 466.258ZM1186.05 469.903C1187.28 469.076 1188.15 467.763 1188.4 466.242C1188.28 466.206 1186.75 465.722 1184.99 466.005C1185.71 467.972 1186 469.574 1186.05 469.903ZM1184.18 464.069C1184.3 464.33 1184.43 464.595 1184.54 464.861C1184.58 464.956 1184.62 465.05 1184.66 465.144C1186.53 464.908 1188.38 465.305 1188.46 465.321C1188.45 464.027 1187.99 462.84 1187.22 461.91C1187.21 461.925 1186.33 463.189 1184.18 464.069Z" fill="white"/>
<path opacity="0.1" fill-rule="evenodd" clip-rule="evenodd" d="M1211 465.386C1211 458.758 1216.37 453.386 1223 453.386C1229.63 453.386 1235 458.758 1235 465.386C1235 472.013 1229.63 477.386 1223 477.386C1216.37 477.386 1211 472.013 1211 465.386Z" fill="#F9F8F9"/>
<path fill-rule="evenodd" clip-rule="evenodd" d="M1222.64 463.139L1222.67 463.555L1222.25 463.504C1220.72 463.309 1219.38 462.648 1218.25 461.538L1217.7 460.987L1217.55 461.394C1217.25 462.301 1217.44 463.258 1218.07 463.902C1218.41 464.258 1218.33 464.309 1217.76 464.097C1217.55 464.029 1217.38 463.978 1217.36 464.004C1217.3 464.063 1217.5 464.834 1217.66 465.139C1217.88 465.563 1218.33 465.978 1218.81 466.224L1219.22 466.419L1218.74 466.427C1218.27 466.427 1218.25 466.436 1218.3 466.614C1218.47 467.165 1219.13 467.749 1219.87 468.004L1220.39 468.181L1219.94 468.453C1219.27 468.842 1218.48 469.063 1217.69 469.08C1217.31 469.088 1217 469.122 1217 469.148C1217 469.232 1218.02 469.707 1218.62 469.893C1220.41 470.444 1222.53 470.207 1224.13 469.266C1225.26 468.597 1226.39 467.266 1226.92 465.978C1227.21 465.292 1227.49 464.038 1227.49 463.436C1227.49 463.046 1227.52 462.995 1227.99 462.529C1228.26 462.258 1228.52 461.962 1228.57 461.877C1228.66 461.716 1228.65 461.716 1228.22 461.86C1227.51 462.114 1227.41 462.08 1227.76 461.699C1228.02 461.428 1228.33 460.936 1228.33 460.792C1228.33 460.767 1228.21 460.809 1228.06 460.885C1227.91 460.97 1227.58 461.097 1227.32 461.173L1226.87 461.318L1226.46 461.038C1226.23 460.885 1225.91 460.716 1225.75 460.665C1225.32 460.546 1224.66 460.563 1224.28 460.699C1223.23 461.08 1222.57 462.063 1222.64 463.139Z" fill="white"/>
<path opacity="0.1" fill-rule="evenodd" clip-rule="evenodd" d="M1251 465.386C1251 458.758 1256.37 453.386 1263 453.386C1269.63 453.386 1275 458.758 1275 465.386C1275 472.013 1269.63 477.386 1263 477.386C1256.37 477.386 1251 472.013 1251 465.386Z" fill="#F9F8F9"/>
<path fill-rule="evenodd" clip-rule="evenodd" d="M1268 461.261C1268.55 461.412 1268.99 461.857 1269.13 462.422C1269.4 463.447 1269.4 465.586 1269.4 465.586C1269.4 465.586 1269.4 467.724 1269.13 468.749C1268.99 469.315 1268.55 469.76 1268 469.911C1267 470.186 1263 470.186 1263 470.186C1263 470.186 1259 470.186 1258 469.911C1257.45 469.76 1257.01 469.315 1256.87 468.749C1256.6 467.724 1256.6 465.586 1256.6 465.586C1256.6 465.586 1256.6 463.447 1256.87 462.422C1257.01 461.857 1257.45 461.412 1258 461.261C1259 460.986 1263 460.986 1263 460.986C1263 460.986 1267 460.986 1268 461.261ZM1261.8 463.786V467.786L1265 465.786L1261.8 463.786Z" fill="white"/>
</g>
<path d="M171.403 471.946C174.312 471.946 176.663 469.594 176.653 466.696C176.643 463.798 174.312 461.446 171.403 461.446C168.515 461.446 166.163 463.798 166.153 466.696C166.143 469.594 168.515 471.946 171.403 471.946ZM171.403 470.793C169.141 470.793 167.297 468.948 167.307 466.701C167.317 464.439 169.151 462.599 171.403 462.599C173.665 462.599 175.49 464.429 175.5 466.701C175.51 468.958 173.675 470.793 171.403 470.793ZM168.5 466.696C168.5 468.327 169.822 469.649 171.453 469.649C172.865 469.649 173.949 468.655 174.138 467.332H172.935C172.795 468.013 172.219 468.496 171.453 468.496C170.459 468.496 169.653 467.69 169.653 466.696C169.653 465.702 170.459 464.896 171.453 464.896C172.219 464.896 172.9 465.378 173.034 466.06H174.237C174.048 464.737 172.865 463.743 171.453 463.743C169.822 463.743 168.5 465.065 168.5 466.696ZM182.802 471.787H189.225V470.693H184.492V470.614L186.779 468.168C188.529 466.293 189.046 465.418 189.046 464.29C189.046 462.719 187.774 461.466 185.984 461.466C184.199 461.466 182.842 462.679 182.842 464.469H184.015C184.015 463.31 184.766 462.54 185.944 462.54C187.048 462.54 187.893 463.216 187.893 464.29C187.893 465.229 187.341 465.925 186.163 467.213L182.802 470.892V471.787ZM194.6 471.926C196.847 471.926 198.139 470.022 198.139 466.696C198.139 463.395 196.827 461.466 194.6 461.466C192.372 461.466 191.06 463.395 191.06 466.696C191.06 470.022 192.352 471.926 194.6 471.926ZM194.6 470.832C193.118 470.832 192.253 469.346 192.253 466.696C192.253 464.051 193.128 462.54 194.6 462.54C196.071 462.54 196.946 464.051 196.946 466.696C196.946 469.346 196.081 470.832 194.6 470.832ZM200.029 471.787H206.452V470.693H201.719V470.614L204.006 468.168C205.756 466.293 206.273 465.418 206.273 464.29C206.273 462.719 205 461.466 203.21 461.466C201.426 461.466 200.068 462.679 200.068 464.469H201.242C201.242 463.31 201.992 462.54 203.171 462.54C204.274 462.54 205.119 463.216 205.119 464.29C205.119 465.229 204.568 465.925 203.389 467.213L200.029 470.892V471.787ZM211.767 461.605H210.673C210.608 461.709 209.877 463.116 208.306 463.116V464.151C209.475 464.151 210.31 463.673 210.454 463.395H210.534V471.787H211.767V461.605ZM218.801 471.787H224.767V470.693H220.034V461.605H218.801V471.787ZM229.401 471.946C230.872 471.946 231.369 471.031 231.628 470.614H231.767V471.787H232.901V464.151H231.727V465.364H231.628C231.369 464.966 230.912 464.051 229.421 464.051C227.492 464.051 226.159 465.582 226.159 467.989C226.159 470.415 227.492 471.946 229.401 471.946ZM229.56 470.892C228.088 470.892 227.333 469.599 227.333 467.969C227.333 466.358 228.068 465.105 229.56 465.105C230.992 465.105 231.747 466.258 231.747 467.969C231.747 469.699 230.972 470.892 229.56 470.892ZM236.943 471.787H238.096L239.767 465.92H239.886L241.556 471.787H242.71L245.036 464.151H243.803L242.153 469.977H242.073L240.463 464.151H239.21L237.579 469.997H237.499L235.849 464.151H234.616L236.943 471.787ZM246.588 461.605V470.116C246.588 471.205 247.144 471.847 248.258 471.847C248.596 471.847 248.929 471.787 249.133 471.727L248.894 470.713C248.78 470.748 248.676 470.783 248.397 470.793C247.88 470.807 247.761 470.539 247.761 469.798V461.605H246.588ZM250.211 471.787H251.384V464.151H250.211V471.787ZM250.807 462.878C251.265 462.878 251.642 462.52 251.642 462.082C251.642 461.645 251.265 461.287 250.807 461.287C250.35 461.287 249.972 461.645 249.972 462.082C249.972 462.52 250.35 462.878 250.807 462.878ZM256.735 471.946C258.286 471.946 259.419 471.17 259.777 470.017L258.644 469.699C258.345 470.494 257.654 470.892 256.735 470.892C255.357 470.892 254.408 470.002 254.353 468.366H259.896V467.869C259.896 465.026 258.206 464.051 256.615 464.051C254.547 464.051 253.175 465.682 253.175 468.028C253.175 470.375 254.527 471.946 256.735 471.946ZM254.353 467.352C254.433 466.164 255.273 465.105 256.615 465.105C257.888 465.105 258.703 466.06 258.703 467.352H254.353ZM265.002 464.151H263.372V462.321H262.198V464.151H261.045V465.145H262.198V469.918C262.198 471.25 263.272 471.886 264.267 471.886C264.704 471.886 264.982 471.807 265.142 471.747L264.903 470.693C264.803 470.713 264.644 470.753 264.386 470.753C263.869 470.753 263.372 470.594 263.372 469.599V465.145H265.002V464.151ZM267.622 471.866C268.115 471.866 268.517 471.464 268.517 470.972C268.517 470.479 268.115 470.077 267.622 470.077C267.13 470.077 266.727 470.479 266.727 470.972C266.727 471.464 267.13 471.866 267.622 471.866ZM275.137 471.787L276.161 468.903H280.278L281.302 471.787H282.594L278.856 461.605H277.583L273.844 471.787H275.137ZM276.549 467.81L278.18 463.216H278.259L279.89 467.81H276.549ZM284.021 461.605V470.116C284.021 471.205 284.578 471.847 285.692 471.847C286.03 471.847 286.363 471.787 286.567 471.727L286.328 470.713C286.214 470.748 286.109 470.783 285.831 470.793C285.314 470.807 285.194 470.539 285.194 469.798V461.605H284.021ZM287.849 461.605V470.116C287.849 471.205 288.406 471.847 289.52 471.847C289.858 471.847 290.191 471.787 290.395 471.727L290.156 470.713C290.042 470.748 289.937 470.783 289.659 470.793C289.142 470.807 289.023 470.539 289.023 469.798V461.605H287.849ZM295.41 471.787H296.583V466.954C296.583 465.925 297.398 465.165 298.512 465.165C298.805 465.165 299.024 465.219 299.188 465.304L299.586 464.31C299.347 464.141 299.034 464.031 298.612 464.031C297.687 464.031 296.896 464.548 296.623 465.304H296.543V464.151H295.41V471.787ZM300.783 471.787H301.956V464.151H300.783V471.787ZM301.379 462.878C301.837 462.878 302.215 462.52 302.215 462.082C302.215 461.645 301.837 461.287 301.379 461.287C300.922 461.287 300.544 461.645 300.544 462.082C300.544 462.52 300.922 462.878 301.379 462.878ZM307.188 474.81C309.017 474.81 310.489 473.974 310.489 472.006V464.151H309.355V465.364H309.236C308.977 464.966 308.5 464.051 307.009 464.051C305.08 464.051 303.747 465.582 303.747 467.929C303.747 470.315 305.139 471.668 306.989 471.668C308.48 471.668 308.957 470.793 309.216 470.375H309.315V471.926C309.315 473.199 308.42 473.776 307.188 473.776C305.8 473.776 305.313 473.045 305 472.622L304.065 473.278C304.543 474.079 305.482 474.81 307.188 474.81ZM307.148 470.614C305.676 470.614 304.92 469.5 304.92 467.909C304.92 466.358 305.656 465.105 307.148 465.105C308.58 465.105 309.335 466.258 309.335 467.909C309.335 469.599 308.56 470.614 307.148 470.614ZM313.81 467.193C313.81 465.861 314.66 465.105 315.818 465.105C316.922 465.105 317.588 465.801 317.588 467.014V471.787H318.761V466.935C318.761 464.971 317.717 464.051 316.156 464.051C314.953 464.051 314.267 464.553 313.909 465.344H313.81V461.605H312.636V471.787H313.81V467.193ZM324.229 464.151H322.598V462.321H321.425V464.151H320.271V465.145H321.425V469.918C321.425 471.25 322.499 471.886 323.493 471.886C323.931 471.886 324.209 471.807 324.368 471.747L324.129 470.693C324.03 470.713 323.871 470.753 323.612 470.753C323.095 470.753 322.598 470.594 322.598 469.599V465.145H324.229V464.151ZM331.266 465.861C330.898 464.777 330.073 464.051 328.562 464.051C326.951 464.051 325.758 464.966 325.758 466.258C325.758 467.312 326.384 468.018 327.786 468.347L329.059 468.645C329.829 468.824 330.192 469.192 330.192 469.719C330.192 470.375 329.496 470.912 328.403 470.912C327.443 470.912 326.841 470.499 326.633 469.679L325.519 469.957C325.792 471.255 326.861 471.946 328.422 471.946C330.197 471.946 331.405 470.976 331.405 469.659C331.405 468.595 330.739 467.924 329.377 467.591L328.243 467.312C327.339 467.089 326.931 466.785 326.931 466.199C326.931 465.543 327.627 465.065 328.562 465.065C329.586 465.065 330.008 465.632 330.212 466.159L331.266 465.861ZM337.109 471.787H338.282V466.954C338.282 465.925 339.098 465.165 340.211 465.165C340.505 465.165 340.723 465.219 340.887 465.304L341.285 464.31C341.047 464.141 340.733 464.031 340.311 464.031C339.386 464.031 338.596 464.548 338.322 465.304H338.243V464.151H337.109V471.787ZM345.451 471.946C347.002 471.946 348.136 471.17 348.494 470.017L347.36 469.699C347.062 470.494 346.371 470.892 345.451 470.892C344.074 470.892 343.125 470.002 343.07 468.366H348.613V467.869C348.613 465.026 346.923 464.051 345.332 464.051C343.264 464.051 341.892 465.682 341.892 468.028C341.892 470.375 343.244 471.946 345.451 471.946ZM343.07 467.352C343.15 466.164 343.99 465.105 345.332 465.105C346.605 465.105 347.42 466.06 347.42 467.352H343.07ZM355.807 465.861C355.439 464.777 354.614 464.051 353.103 464.051C351.492 464.051 350.299 464.966 350.299 466.258C350.299 467.312 350.925 468.018 352.327 468.347L353.6 468.645C354.37 468.824 354.733 469.192 354.733 469.719C354.733 470.375 354.037 470.912 352.944 470.912C351.984 470.912 351.382 470.499 351.174 469.679L350.06 469.957C350.333 471.255 351.402 471.946 352.963 471.946C354.738 471.946 355.946 470.976 355.946 469.659C355.946 468.595 355.28 467.924 353.918 467.591L352.784 467.312C351.88 467.089 351.472 466.785 351.472 466.199C351.472 465.543 352.168 465.065 353.103 465.065C354.127 465.065 354.549 465.632 354.753 466.159L355.807 465.861ZM360.914 471.946C362.465 471.946 363.599 471.17 363.957 470.017L362.823 469.699C362.525 470.494 361.834 470.892 360.914 470.892C359.537 470.892 358.588 470.002 358.533 468.366H364.076V467.869C364.076 465.026 362.386 464.051 360.795 464.051C358.727 464.051 357.355 465.682 357.355 468.028C357.355 470.375 358.707 471.946 360.914 471.946ZM358.533 467.352C358.612 466.164 359.453 465.105 360.795 465.105C362.068 465.105 362.883 466.06 362.883 467.352H358.533ZM365.861 471.787H367.034V466.954C367.034 465.925 367.85 465.165 368.963 465.165C369.257 465.165 369.475 465.219 369.639 465.304L370.037 464.31C369.798 464.141 369.485 464.031 369.063 464.031C368.138 464.031 367.347 464.548 367.074 465.304H366.994V464.151H365.861V471.787ZM377.601 464.151H376.329L374.221 470.236H374.141L372.033 464.151H370.76L373.584 471.787H374.778L377.601 464.151ZM382.078 471.946C383.629 471.946 384.763 471.17 385.121 470.017L383.987 469.699C383.689 470.494 382.998 470.892 382.078 470.892C380.701 470.892 379.752 470.002 379.697 468.366H385.24V467.869C385.24 465.026 383.55 464.051 381.959 464.051C379.891 464.051 378.519 465.682 378.519 468.028C378.519 470.375 379.871 471.946 382.078 471.946ZM379.697 467.352C379.776 466.164 380.617 465.105 381.959 465.105C383.232 465.105 384.047 466.06 384.047 467.352H379.697ZM389.909 471.946C391.38 471.946 391.877 471.031 392.136 470.614H392.275V471.787H393.409V461.605H392.235V465.364H392.136C391.877 464.966 391.42 464.051 389.928 464.051C387.999 464.051 386.667 465.582 386.667 467.989C386.667 470.415 387.999 471.946 389.909 471.946ZM390.068 470.892C388.596 470.892 387.84 469.599 387.84 467.969C387.84 466.358 388.576 465.105 390.068 465.105C391.499 465.105 392.255 466.258 392.255 467.969C392.255 469.699 391.48 470.892 390.068 470.892Z" fill="#D9DBE1"/>
<defs>
<clipPath id="clip0">
<rect width="540" height="231.248" fill="white" transform="translate(735 99.2437)"/>
</clipPath>
<clipPath id="clip1">
<rect width="160" height="240" fill="white" transform="translate(735 99.2437)"/>
</clipPath>
<clipPath id="clip2">
<rect width="160" height="240" fill="white" transform="translate(925 99.2437)"/>
</clipPath>
<clipPath id="clip3">
<rect width="160" height="240" fill="white" transform="translate(1115 99.2437)"/>
</clipPath>
<clipPath id="clip4">
<rect width="144" height="24" fill="white" transform="translate(1131 453.386)"/>
</clipPath>
</defs>
</svg>
